<?xml version="1.0" standalone="no"?>
<!DOCTYPE svg PUBLIC "-//W3C//DTD SVG 20010904//EN"
 "http://www.w3.org/TR/2001/REC-SVG-20010904/DTD/svg10.dtd">
<svg version="1.0" xmlns="http://www.w3.org/2000/svg"
 width="425.000000pt" height="283.000000pt" viewBox="0 0 425.000000 283.000000"
 preserveAspectRatio="xMidYMid meet">

<g transform="translate(0.000000,283.000000) scale(0.100000,-0.100000)"
fill="#000000" stroke="none">
<path d="M2197 2523 c-13 -12 -7 -31 12 -36 48 -12 97 21 55 37 -21 8 -59 8
-67 -1z"/>
<path d="M338 2243 c-31 -36 -38 -63 -37 -155 2 -143 -1 -140 104 -113 77 20
89 14 37 -18 -23 -15 -42 -31 -42 -36 0 -4 48 -11 107 -14 98 -6 136 -1 134
16 -3 22 2 27 34 33 53 10 62 36 24 71 -16 15 -42 49 -57 75 -23 41 -32 48
-57 48 -24 0 -35 -8 -55 -40 -13 -22 -30 -42 -38 -45 -16 -6 -49 46 -63 100
-23 88 -24 90 -50 93 -15 2 -31 -4 -41 -15z"/>
<path d="M924 2164 c-14 -55 -7 -57 154 -49 81 4 151 11 155 15 5 4 7 16 5 26
-3 16 -14 19 -73 21 -39 0 -107 4 -152 6 -81 5 -83 5 -89 -19z"/>
<path d="M2065 2020 c-16 -11 -37 -20 -46 -20 -9 0 -22 -7 -29 -15 -11 -13 -8
-14 21 -9 101 19 104 20 104 39 0 26 -15 28 -50 5z"/>
<path d="M1636 1965 c4 -10 19 -15 47 -15 48 0 39 15 -15 24 -31 6 -37 4 -32
-9z"/>
<path d="M1515 1920 c-4 -6 7 -10 25 -10 18 0 29 4 25 10 -3 6 -15 10 -25 10
-10 0 -22 -4 -25 -10z"/>
<path d="M1848 1919 c-16 -9 -16 -11 1 -40 10 -17 28 -37 39 -45 20 -13 22
-12 37 15 20 40 20 44 -14 64 -33 20 -40 20 -63 6z"/>
<path d="M1416 1881 c-9 -16 -22 -31 -31 -34 -19 -8 -19 -41 0 -57 26 -21 65
6 65 44 0 18 7 42 16 54 14 21 14 22 -10 22 -18 0 -30 -9 -40 -29z"/>
<path d="M1657 1863 c-26 -7 -17 -35 16 -51 37 -18 34 -32 -7 -32 -37 0 -52
-12 -39 -32 4 -7 8 -22 8 -33 0 -16 7 -20 35 -22 19 0 42 -3 50 -5 8 -1 43 6
77 17 55 17 62 23 66 50 6 38 1 45 -27 45 -13 0 -34 9 -48 19 -15 12 -33 18
-46 14 -14 -3 -25 2 -34 16 -13 21 -18 23 -51 14z"/>
<path d="M3383 1854 c-49 -21 -46 -29 16 -29 55 0 57 2 53 35 -3 14 -30 11
-69 -6z"/>
<path d="M2045 1830 c-4 -6 -14 -10 -23 -10 -14 -1 -61 -61 -80 -102 -7 -16
19 -7 63 21 27 17 41 31 33 34 -9 3 -4 13 16 29 24 21 26 26 13 31 -9 3 -19 2
-22 -3z"/>
<path d="M3475 1820 c-3 -5 1 -10 10 -10 9 0 13 5 10 10 -3 6 -8 10 -10 10 -2
0 -7 -4 -10 -10z"/>
<path d="M1477 1783 c-15 -15 -5 -39 24 -55 28 -17 89 -25 89 -13 0 16 -31 63
-45 69 -22 8 -60 8 -68 -1z"/>
<path d="M800 1760 c0 -14 7 -20 21 -20 15 0 19 4 15 16 -3 9 -6 18 -6 20 0 2
-7 4 -15 4 -8 0 -15 -9 -15 -20z"/>
<path d="M2110 1741 c30 -25 34 -34 35 -77 0 -27 5 -55 12 -61 16 -18 75 -16
99 2 16 13 17 16 4 25 -8 5 -31 10 -50 11 -32 1 -33 2 -10 9 14 4 42 5 63 3
l37 -6 0 39 c0 22 -4 44 -8 49 -4 6 -37 10 -74 10 -40 0 -72 5 -80 13 -6 6
-23 12 -37 12 -25 0 -25 0 9 -29z m140 -33 c0 -7 -5 -20 -10 -28 -9 -13 -11
-13 -19 -1 -5 8 -7 20 -4 28 6 17 33 17 33 1z"/>
<path d="M369 1746 c-14 -6 -33 -17 -42 -24 -20 -17 -38 -7 -30 16 4 13 2 13
-10 -3 -9 -11 -17 -26 -17 -32 0 -7 -9 -13 -20 -13 -12 0 -28 -15 -42 -40 -24
-42 -35 -49 -44 -26 -8 21 -125 -13 -135 -40 -8 -23 16 -54 42 -54 11 0 21
-10 25 -25 5 -22 12 -25 48 -25 l41 0 0 39 c0 39 0 39 -25 26 -14 -7 -31 -10
-38 -8 -14 5 28 32 60 38 9 2 28 11 43 21 22 15 28 15 35 3 7 -11 14 -9 35 11
23 22 29 23 57 12 25 -9 36 -8 60 4 29 15 29 16 12 35 -9 10 -18 35 -18 54 -2
42 -5 45 -37 31z"/>
<path d="M3147 1732 c-15 -15 -27 -34 -27 -41 0 -8 -6 -11 -16 -7 -18 7 -93
-12 -111 -28 -16 -15 -6 -83 14 -90 8 -3 24 1 36 9 26 18 59 19 76 3 10 -11
11 -8 6 14 -9 34 10 93 42 136 30 39 17 42 -20 4z"/>
<path d="M535 1719 c-4 -6 -16 -14 -27 -18 -14 -5 -21 -18 -23 -40 -3 -29 -1
-32 20 -27 14 4 28 0 35 -9 17 -21 30 -19 30 5 0 11 7 23 15 26 19 8 21 68 3
61 -7 -2 -21 0 -30 4 -10 6 -19 5 -23 -2z"/>
<path d="M3370 1723 c-20 -5 -45 -41 -54 -75 -7 -32 5 -35 44 -13 14 8 50 15
80 15 30 0 61 4 67 8 7 5 52 2 100 -5 171 -27 224 -28 266 -3 l38 23 -32 19
c-29 17 -32 18 -43 3 -10 -14 -22 -16 -68 -10 -34 4 -59 13 -62 21 -7 18 -30
18 -46 -1 -24 -28 -81 -36 -130 -18 -25 9 -54 23 -65 30 -19 12 -63 16 -95 6z"/>
<path d="M1338 1690 c9 -16 21 -30 25 -30 5 0 5 4 2 10 -3 5 -1 19 5 30 10 18
8 20 -19 20 l-30 0 17 -30z"/>
<path d="M660 1660 c0 -20 5 -30 15 -30 9 0 15 9 15 24 0 13 -7 26 -15 30 -11
4 -15 -2 -15 -24z"/>
<path d="M2370 1678 c0 -6 -7 -20 -16 -30 -16 -16 -15 -18 7 -26 25 -10 72 0
95 19 9 7 14 8 14 1 0 -6 14 -10 30 -10 32 1 37 13 17 38 -15 18 -147 25 -147
8z"/>
<path d="M2595 1678 c-37 -13 -35 -11 -40 -36 -3 -18 1 -19 38 -15 62 7 69 11
65 35 -4 27 -21 31 -63 16z"/>
<path d="M1174 1663 c-10 -10 -29 -33 -42 -51 -18 -26 -20 -32 -7 -32 8 0 20
12 26 28 5 15 20 35 32 44 12 9 19 19 16 22 -3 4 -14 -2 -25 -11z"/>
<path d="M3199 1638 c-34 -38 -36 -48 -10 -48 10 0 31 -2 47 -6 25 -4 32 0 46
25 16 29 16 30 -7 45 -34 22 -42 20 -76 -16z"/>
<path d="M2076 1644 c-4 -9 -4 -19 -1 -22 2 -3 7 3 11 12 4 9 4 19 1 22 -2 3
-7 -3 -11 -12z"/>
<path d="M867 1632 c5 -20 31 -37 71 -45 46 -10 -4 43 -55 58 -17 5 -20 2 -16
-13z"/>
<path d="M1890 1639 c-14 -4 -38 -11 -53 -14 -20 -4 -27 -10 -23 -20 7 -18
-50 -30 -104 -21 -35 5 -41 3 -64 -26 l-26 -33 33 -6 c29 -6 29 -7 6 -8 -23
-1 -65 -31 -44 -31 4 0 2 -7 -5 -15 -15 -18 -10 -18 24 -5 36 13 54 4 48 -26
-4 -23 -32 -35 -32 -13 0 6 -9 8 -20 4 -12 -4 -27 -1 -35 5 -8 6 -20 8 -26 4
-8 -4 -9 -3 -5 4 4 7 1 12 -9 12 -11 0 -15 -5 -11 -15 3 -8 1 -15 -4 -15 -6 0
-10 5 -10 10 0 7 -6 7 -18 1 -10 -5 -24 -9 -32 -9 -48 3 -53 -1 -47 -37 6 -37
-11 -50 -20 -16 -5 19 -5 19 -36 0 -18 -10 -50 -19 -73 -19 -32 0 -45 -5 -57
-22 -14 -22 -16 -22 -33 -6 -17 17 -19 16 -35 -19 -20 -44 -17 -53 19 -53 15
0 34 -4 42 -10 8 -5 19 -5 25 0 14 12 95 0 95 -14 0 -6 5 -4 10 4 7 10 12 12
18 4 4 -6 22 -17 39 -25 27 -11 30 -15 15 -21 -11 -4 -2 -7 23 -7 22 -1 64 -4
93 -8 45 -5 52 -8 47 -24 -5 -14 -1 -19 13 -19 32 0 45 24 22 40 -26 19 -26
34 -1 18 14 -8 31 -9 58 -2 30 7 39 14 41 34 2 14 10 29 18 33 8 4 14 14 14
22 0 16 31 28 53 19 12 -4 14 -1 10 15 -3 13 -1 21 6 21 7 0 9 5 6 10 -8 13 6
13 39 0 34 -13 33 -25 -5 -41 -30 -12 -31 -13 -10 -21 13 -4 42 -24 65 -43 24
-20 54 -35 68 -35 19 0 27 -6 30 -25 6 -30 -15 -34 -40 -8 -16 16 -17 15 -20
-1 -6 -28 7 -51 20 -38 8 8 18 3 38 -18 21 -22 38 -29 86 -35 32 -3 76 -12 97
-20 50 -18 74 -9 68 27 0 4 16 19 37 35 57 42 60 45 20 29 -49 -21 -51 -20
-69 9 l-15 25 -32 -30 c-25 -23 -39 -29 -58 -24 -13 3 -26 10 -29 14 -7 11
-45 0 -45 -12 0 -6 -7 -8 -15 -4 -8 3 -19 -2 -24 -12 -9 -16 -10 -16 -17 1 -9
24 27 57 61 57 14 0 25 5 25 11 0 5 4 8 9 5 5 -3 11 1 15 9 3 8 1 15 -3 15 -5
0 -8 11 -7 24 5 41 -8 49 -38 25 -32 -25 -45 -19 -24 13 8 13 18 36 22 51 5
20 11 27 24 23 9 -3 35 -8 57 -12 51 -9 103 -64 61 -64 -8 0 -18 -10 -22 -22
-3 -13 -13 -31 -22 -40 -9 -12 -11 -18 -4 -18 7 0 12 5 12 11 0 8 4 8 14 0 10
-8 22 -7 50 4 28 12 36 21 36 40 0 16 -6 25 -15 25 -17 0 -20 16 -6 25 5 3 16
-2 24 -10 9 -8 22 -15 29 -15 22 0 68 24 67 35 -4 35 5 43 10 10 5 -27 2 -49
-8 -67 -18 -33 -15 -35 59 -68 30 -14 75 -37 99 -52 47 -30 89 -36 109 -16 7
7 36 11 73 9 38 -2 59 1 55 7 -3 6 0 13 6 15 7 3 -11 6 -40 6 -65 1 -92 14
-92 44 0 13 -9 41 -20 63 -34 68 -34 68 -64 49 -32 -21 -46 -13 -22 14 16 17
14 19 -44 31 -61 13 -61 13 -54 43 6 29 5 29 -22 23 -57 -14 -69 -16 -57 -10
7 3 9 12 6 21 -4 10 -2 14 4 10 5 -4 18 0 28 7 17 13 18 15 3 30 -9 9 -25 16
-35 16 -15 0 -16 -2 -3 -10 13 -9 13 -11 1 -19 -20 -13 -41 -2 -41 20 0 10 -6
19 -14 19 -8 0 -22 3 -31 6 -13 5 -16 2 -13 -16 3 -20 -3 -25 -52 -37 -141
-36 -134 -33 -117 -50 11 -12 20 -13 29 -6 9 7 22 5 43 -8 l30 -19 -27 0 c-14
0 -29 6 -32 13 -3 9 -9 7 -19 -6 -13 -16 -16 -16 -28 -1 -11 14 -14 14 -23 2
-20 -27 -40 -26 -58 4 -10 16 -18 38 -18 50 0 19 2 20 18 6 36 -33 58 -31 80
5 11 19 34 41 51 48 17 8 31 17 31 21 0 5 15 8 34 8 19 0 38 5 42 12 5 8 2 9
-9 5 -10 -3 -17 -2 -17 3 0 6 -14 10 -31 10 -17 0 -39 5 -50 10 -13 8 -19 7
-19 0 0 -6 7 -13 15 -16 23 -9 18 -21 -10 -26 -14 -3 -33 1 -42 8 -24 18 -33
17 -33 -1 0 -8 -12 -17 -27 -20 -16 -4 -35 -10 -44 -15 -8 -4 -23 -4 -33 2 -9
5 -35 7 -56 3 -50 -8 -62 -1 -50 30 8 20 6 27 -10 37 -31 20 -24 37 25 59 59
26 63 38 5 18z m-70 -264 c8 -9 8 -15 2 -15 -6 0 -14 5 -17 10 -3 6 -14 10
-23 10 -18 0 -45 34 -35 44 6 6 53 -25 73 -49z m-190 15 c-28 -8 -35 -6 -26 8
3 6 16 7 29 4 22 -6 22 -6 -3 -12z m80 -80 c0 -5 -7 -10 -16 -10 -8 0 -12 5
-9 10 3 6 10 10 16 10 5 0 9 -4 9 -10z m-275 -27 c-5 -10 -7 -24 -6 -30 1 -8
-4 -10 -13 -7 -14 5 -14 9 0 36 16 31 32 32 19 1z m155 -53 c0 -5 -9 -10 -19
-10 -11 0 -23 -4 -26 -10 -3 -5 -16 -10 -28 -9 l-22 0 21 9 c12 5 25 13 29 19
8 14 45 14 45 1z m530 -110 c0 -5 -4 -10 -10 -10 -5 0 -10 5 -10 10 0 6 5 10
10 10 6 0 10 -4 10 -10z"/>
<path d="M590 1601 c0 -11 26 -22 34 -14 12 12 5 23 -14 23 -11 0 -20 -4 -20
-9z"/>
<path d="M1410 1596 c0 -8 5 -18 10 -21 6 -3 10 1 10 9 0 8 -4 18 -10 21 -5 3
-10 -1 -10 -9z"/>
<path d="M3443 1580 c-49 -22 -53 -32 -18 -48 14 -6 25 -17 25 -23 0 -6 11 -8
28 -4 16 3 43 -1 65 -10 71 -29 123 -16 111 28 -7 30 -25 35 -44 12 -21 -25
-65 -19 -78 10 -7 14 -12 32 -12 40 0 20 -27 18 -77 -5z"/>
<path d="M3773 1535 c-20 -42 -20 -44 -4 -50 10 -3 31 -5 47 -4 16 0 66 -7
111 -17 45 -9 88 -14 97 -11 28 11 13 99 -20 111 -7 3 -42 0 -79 -5 -55 -9
-70 -8 -90 5 -34 23 -37 21 -62 -29z"/>
<path d="M730 1553 c0 -15 43 -28 65 -19 8 3 15 12 15 20 0 10 -11 14 -40 13
-24 -1 -40 -7 -40 -14z"/>
<path d="M515 1540 c5 -14 2 -20 -9 -20 -9 0 -16 -5 -16 -11 0 -6 7 -9 15 -5
8 3 15 0 15 -7 0 -13 91 -36 175 -44 65 -6 51 6 -45 41 -41 15 -90 36 -108 47
-33 19 -33 19 -27 -1z"/>
<path d="M2100 1550 c0 -5 5 -10 10 -10 6 0 10 5 10 10 0 6 -4 10 -10 10 -5 0
-10 -4 -10 -10z"/>
<path d="M2433 1540 c9 -6 15 -15 12 -21 -10 -15 22 -10 35 6 10 12 10 15 -1
15 -8 0 -25 3 -39 6 -22 5 -23 4 -7 -6z"/>
<path d="M2897 1538 c-21 -11 -22 -28 -3 -28 23 0 48 -31 43 -52 -4 -14 3 -25
26 -38 46 -27 70 -71 57 -104 -9 -24 -7 -28 16 -36 14 -6 31 -10 38 -10 8 0
32 -7 55 -15 32 -11 47 -12 66 -3 19 8 27 7 40 -6 9 -9 21 -16 27 -16 5 0 23
-14 40 -32 l29 -31 -7 -113 -7 -113 74 5 c75 6 213 30 233 41 6 3 21 15 32 25
33 30 39 5 10 -41 -14 -22 -27 -44 -28 -49 -2 -5 26 -33 62 -62 77 -62 90 -85
53 -95 -22 -5 -34 1 -72 39 -53 52 -85 66 -146 66 -25 0 -81 7 -126 16 -69 14
-82 15 -90 3 -5 -8 -7 -19 -5 -25 9 -24 -15 -107 -41 -139 -36 -45 -60 -48
-38 -4 9 17 14 38 12 47 -3 11 -7 6 -12 -15 -4 -19 -12 -30 -20 -27 -16 6 -39
-22 -32 -40 4 -9 -8 -18 -34 -26 -21 -7 -39 -16 -39 -19 0 -4 -9 -7 -20 -8
-11 -1 -20 2 -20 8 0 5 8 9 18 9 13 0 14 2 3 9 -7 5 -15 19 -16 32 -1 13 -3
30 -4 37 0 7 -6 10 -12 6 -6 -3 -9 -14 -6 -24 3 -12 -5 -25 -24 -39 -37 -28
-45 -27 -25 3 16 26 12 61 -7 49 -7 -4 -8 0 -4 11 4 10 7 19 7 22 0 2 10 0 23
-5 20 -8 22 -6 23 33 l1 41 -14 -33 c-8 -21 -18 -30 -25 -26 -9 6 -9 9 0 12 8
2 8 8 -1 23 -9 15 -9 21 0 27 8 5 0 22 -24 55 -19 26 -39 47 -44 47 -4 0 -7
-17 -6 -37 2 -31 6 -37 20 -35 15 3 17 -1 11 -20 -4 -13 -7 -33 -6 -45 1 -13
-2 -22 -6 -22 -18 3 -26 -2 -14 -9 9 -7 10 -15 2 -33 -10 -22 -10 -23 -6 -1 4
22 -8 30 -19 12 -4 -6 -11 -8 -16 -5 -5 4 -9 1 -9 -5 0 -7 6 -10 14 -7 8 3 16
-2 19 -13 5 -20 -34 -47 -52 -36 -6 4 -11 2 -11 -3 0 -6 5 -11 10 -11 6 0 10
-7 10 -15 0 -18 12 -19 28 -3 9 9 12 6 10 -15 -1 -15 -6 -27 -11 -27 -5 0 -6
7 -3 16 3 8 2 12 -4 9 -6 -3 -10 -14 -11 -23 -1 -10 -4 -7 -8 8 -4 14 -13 24
-19 23 -6 -2 -9 3 -6 11 6 14 -20 46 -38 46 -6 0 -6 6 2 15 7 8 16 13 20 10 4
-3 13 2 20 10 11 13 10 14 -5 9 -14 -6 -16 -4 -10 7 6 11 5 12 -6 2 -22 -22
-30 -14 -13 12 15 23 43 37 29 15 -3 -6 -1 -10 4 -10 15 0 14 23 -1 39 -10 11
-10 13 0 7 20 -12 14 1 -14 29 -14 14 -22 30 -19 35 3 6 2 10 -4 10 -7 0 -7 8
-1 26 9 22 8 25 -6 20 -8 -3 -18 -6 -20 -6 -2 0 -4 -7 -4 -16 0 -9 -5 -12 -12
-8 -7 5 -9 0 -6 -14 7 -25 -15 -47 -37 -38 -8 3 -25 1 -37 -4 -13 -5 -19 -9
-15 -9 5 -1 -1 -13 -13 -28 -12 -16 -17 -29 -11 -31 15 -5 14 -42 -1 -42 -22
0 -41 17 -33 30 5 8 1 8 -13 -1 -23 -15 -20 -29 7 -29 10 0 24 -7 31 -15 11
-13 10 -14 -3 -10 -8 4 -18 2 -22 -4 -3 -6 -1 -11 4 -11 6 0 11 -7 11 -15 0
-20 19 -19 27 1 5 13 7 13 14 2 12 -18 11 -31 -1 -23 -5 3 -10 0 -10 -8 0 -8
9 -17 20 -20 11 -3 20 -10 20 -17 0 -6 -4 -8 -10 -5 -5 3 -10 1 -10 -5 0 -7
-7 -10 -15 -6 -15 5 -19 -4 -16 -34 2 -13 1 -13 -8 0 -7 10 -6 21 4 36 12 19
11 23 -7 42 -20 20 -22 20 -47 4 -18 -12 -23 -13 -17 -3 6 9 3 19 -10 28 -15
11 -16 15 -5 22 9 6 10 11 2 15 -6 4 -9 12 -5 17 3 6 -3 19 -15 30 -12 11 -21
15 -21 10 0 -5 -9 -9 -20 -8 -14 1 -20 8 -20 25 0 13 -4 21 -10 17 -6 -4 -9
-14 -6 -23 2 -10 7 -27 11 -38 4 -15 0 -24 -11 -28 -11 -4 -15 -2 -11 8 4 10
1 13 -8 10 -8 -3 -21 0 -29 8 -12 13 -11 16 6 27 11 7 17 8 13 2 -3 -6 -1 -11
4 -11 15 0 14 17 0 26 -7 4 -24 7 -39 6 -23 0 -29 5 -33 28 -4 17 -15 31 -27
35 -11 3 -20 11 -20 16 0 14 20 11 20 -3 0 -7 9 -2 20 12 11 14 20 30 19 35 0
6 -7 1 -15 -10 -15 -19 -16 -19 -29 -1 -7 10 -18 15 -23 12 -6 -3 -22 -2 -35
3 -19 8 -29 6 -38 -5 -9 -11 -15 -12 -26 -3 -11 10 -12 9 -7 -5 3 -9 10 -16
16 -16 5 0 6 -5 2 -11 -5 -8 -10 -6 -16 5 -5 9 -16 16 -23 16 -8 0 -15 5 -15
10 0 6 -4 10 -10 10 -5 0 -8 -17 -6 -37 2 -21 2 -32 -1 -25 -2 6 -14 12 -26
12 -20 0 -20 1 -2 13 25 19 11 41 -17 26 -16 -9 -23 -8 -30 2 -7 11 -9 11 -7
-1 3 -30 -1 -39 -16 -34 -8 4 -15 13 -15 21 0 10 -6 13 -16 9 -8 -3 -12 -2 -9
3 3 6 -21 9 -57 8 -35 -1 -71 2 -80 7 -15 7 -18 3 -18 -20 0 -33 -20 -20 -23
15 -2 27 -37 29 -37 2 0 -20 -25 -51 -41 -51 -5 0 -9 7 -9 15 0 8 6 12 14 9
18 -7 29 25 15 42 -17 21 -39 17 -39 -6 0 -11 -5 -20 -11 -20 -7 0 -9 10 -5
25 5 19 3 23 -9 19 -8 -4 -15 -2 -15 2 0 12 -69 32 -100 29 -14 -1 -24 -8 -23
-14 2 -6 -2 -11 -8 -11 -6 0 -8 9 -4 20 5 14 2 20 -9 20 -9 0 -16 -7 -16 -15
0 -8 -5 -15 -11 -15 -6 0 -8 9 -4 23 5 19 4 20 -7 6 -7 -9 -20 -14 -28 -11 -9
2 -7 -2 5 -12 12 -9 15 -15 7 -16 -7 0 -11 -4 -7 -9 3 -5 0 -13 -6 -17 -7 -4
-9 -3 -6 3 8 12 -20 39 -30 29 -3 -3 -1 -6 5 -6 7 0 12 -7 12 -15 0 -8 -4 -15
-10 -15 -15 0 -30 35 -24 57 7 26 -24 41 -32 15 -3 -9 -9 -24 -14 -33 -9 -17
5 -49 22 -49 6 0 20 -7 30 -17 17 -15 18 -15 18 1 0 9 5 14 10 11 6 -4 8 -11
4 -16 -3 -6 3 -13 15 -16 12 -3 21 -12 21 -19 0 -8 8 -14 18 -15 14 0 14 -2
-3 -9 -12 -4 -27 -15 -34 -24 -7 -9 -18 -16 -24 -16 -6 0 -7 3 -4 7 6 5 -37
53 -47 53 -13 0 -54 -28 -49 -33 3 -4 1 -7 -5 -7 -6 0 -9 -6 -6 -14 3 -8 1
-17 -4 -20 -5 -3 -12 3 -15 14 -3 11 -1 20 4 20 5 0 9 5 9 11 0 5 -6 7 -12 4
-7 -4 -4 1 7 9 11 9 25 14 32 12 7 -3 13 1 13 9 0 8 -9 15 -20 15 -11 0 -20 5
-20 11 0 5 5 7 10 4 6 -3 10 0 10 7 1 8 4 7 10 -4 6 -9 24 -19 40 -23 17 -4
30 -11 30 -16 0 -6 5 -7 10 -4 6 3 10 -3 10 -15 0 -13 5 -20 13 -18 21 8 19
36 -3 43 -12 4 -31 16 -42 27 -10 10 -25 17 -31 15 -22 -7 -39 22 -33 56 l6
32 -14 -30 c-8 -16 -12 -33 -9 -38 7 -12 -26 -39 -39 -32 -7 4 -2 -3 12 -14
l25 -20 -32 4 c-18 2 -37 6 -42 9 -5 4 -11 2 -13 -4 -4 -12 -48 -1 -48 12 0 6
17 7 40 4 31 -4 38 -2 34 9 -4 9 3 18 19 24 27 11 44 51 21 51 -8 0 -14 -8
-14 -18 0 -9 -9 -23 -19 -29 -16 -10 -20 -9 -25 3 -9 23 -7 36 4 29 6 -3 10
-1 10 5 0 7 -18 10 -47 8 -36 -2 -50 -8 -58 -24 -8 -16 -15 -19 -30 -13 -30
11 -32 11 -38 -12 -4 -15 -2 -18 7 -10 16 13 66 11 66 -3 0 -5 12 4 26 20 15
16 24 24 20 18 -3 -7 2 -15 12 -19 16 -6 16 -7 -1 -16 -9 -6 -22 -7 -27 -4 -6
4 -10 -7 -10 -24 0 -17 4 -31 10 -31 6 0 5 -11 -2 -26 -7 -15 -14 -21 -16 -15
-2 6 -10 11 -17 11 -21 0 -30 -21 -14 -32 11 -7 9 -8 -6 -6 -15 2 -19 -2 -17
-17 2 -12 0 -16 -5 -9 -9 12 -65 25 -58 13 3 -4 0 -11 -6 -15 -8 -5 -9 -3 -4
6 6 9 4 12 -6 8 -22 -8 -39 15 -22 30 10 10 13 10 13 0 0 -9 10 -13 28 -12 15
1 28 3 30 4 1 2 5 3 10 4 18 3 32 19 31 34 0 11 -3 12 -6 5 -10 -27 -45 -5
-51 32 -2 11 -8 22 -13 23 -5 2 -6 9 -3 14 4 6 2 8 -4 4 -5 -3 -12 -1 -14 6
-3 9 -6 9 -12 0 -4 -7 -2 -12 3 -12 6 0 11 -4 11 -9 0 -5 -9 -7 -20 -4 -20 5
-23 23 -5 35 6 5 5 12 -3 20 -6 6 -12 20 -12 31 0 10 -4 16 -8 13 -5 -3 -9 1
-9 9 0 18 19 19 35 3 12 -12 12 -7 3 41 -1 2 -9 -3 -18 -10 -11 -10 -14 -10
-9 -1 4 6 3 12 -3 12 -6 0 -8 7 -4 16 5 14 3 15 -14 6 -11 -6 -23 -8 -27 -5
-9 9 -8 -2 3 -30 9 -22 7 -25 -13 -23 -15 2 -26 -5 -33 -21 -6 -12 -7 -21 -2
-17 5 3 9 0 9 -5 0 -21 -29 -11 -32 12 -2 12 -7 22 -13 23 -5 0 -23 6 -39 13
-16 6 -43 13 -60 15 -19 2 -32 10 -34 20 -2 9 -7 16 -10 16 -4 0 -35 -27 -69
-59 -43 -41 -65 -71 -72 -98 -12 -44 -40 -78 -71 -88 -12 -4 -54 1 -93 11 -56
13 -79 25 -105 51 -26 28 -31 40 -25 61 15 61 105 182 154 208 27 13 32 13 71
-7 24 -12 52 -29 63 -40 11 -10 41 -23 67 -30 39 -11 52 -10 73 1 19 10 28 11
37 2 7 -7 22 -12 35 -12 20 0 23 5 23 41 0 36 -2 40 -20 34 -13 -4 -20 -2 -20
7 -1 8 -6 6 -15 -6 -17 -23 -20 -4 -5 25 8 14 17 18 35 13 24 -6 24 -5 23 58
l-1 64 -49 -24 c-27 -13 -57 -21 -65 -17 -9 3 -19 1 -23 -5 -7 -12 -243 -25
-407 -22 -68 1 -103 -3 -103 -10 0 -7 -5 -6 -15 2 -8 7 -48 13 -90 14 -55 1
-79 5 -85 16 -7 11 -10 7 -10 -17 0 -25 4 -31 15 -27 8 4 15 1 15 -5 0 -7 -6
-14 -14 -17 -10 -4 -7 -12 13 -33 44 -48 53 -61 41 -61 -6 0 -22 11 -36 25
-14 14 -27 25 -29 25 -3 0 -5 -53 -5 -119 l0 -118 78 -36 c42 -19 112 -47 155
-62 43 -15 80 -32 83 -36 7 -13 -1 -11 -43 6 -44 19 -49 19 -34 1 20 -24 -29
-7 -69 24 -23 18 -48 27 -71 28 -20 0 -50 7 -68 16 l-31 17 0 -54 0 -54 48
-19 c26 -10 54 -19 62 -20 24 -3 73 -24 68 -30 -3 -2 -40 7 -83 21 -43 14 -81
25 -86 25 -5 0 -9 -112 -9 -249 l0 -248 30 -34 c22 -25 30 -30 30 -16 0 28 15
19 28 -17 7 -19 19 -37 28 -40 8 -3 12 -2 9 4 -3 6 -1 10 4 10 6 0 11 -5 11
-11 0 -5 5 -7 10 -4 6 4 10 3 9 -2 -1 -4 1 -32 6 -60 l8 -53 37 0 38 0 -6 85
-5 86 32 -3 c17 -1 31 -6 31 -11 0 -5 7 -7 15 -3 8 3 15 1 15 -5 0 -6 9 -8 20
-4 11 3 20 2 20 -4 0 -6 12 -4 27 4 32 17 112 4 86 -14 -6 -4 -5 -18 4 -36 11
-26 13 -27 11 -6 -3 20 2 24 32 27 19 1 30 0 23 -2 -17 -7 0 -58 21 -62 13 -3
16 2 14 25 -2 23 1 29 19 31 15 2 23 -2 23 -12 0 -20 19 -31 33 -17 15 15 60
15 51 0 -5 -8 -1 -8 14 0 13 7 23 7 27 2 8 -14 45 -9 45 6 0 18 17 16 24 -2 6
-17 36 -21 36 -5 0 6 13 10 28 10 21 0 32 -7 40 -25 6 -14 18 -25 25 -25 8 0
22 -9 32 -20 15 -16 31 -20 88 -20 64 0 69 1 64 20 -7 27 28 27 43 0 10 -19
21 -20 220 -20 136 0 210 4 210 10 0 12 59 10 66 -2 3 -5 410 -8 905 -8 585 0
898 4 894 10 -3 6 3 10 14 10 11 0 22 -4 25 -9 3 -5 60 -9 126 -9 91 -1 120 2
120 12 0 7 -3 16 -7 20 -4 3 -7 15 -8 26 -2 23 18 20 73 -11 44 -25 50 -24 22
6 -19 20 -20 25 -7 25 10 0 14 5 11 15 -7 18 17 20 34 3 9 -9 12 -9 12 1 0 7
4 10 9 7 5 -4 21 -2 35 4 16 6 27 6 31 0 3 -6 16 -15 28 -20 21 -11 21 -10 3
4 -18 14 -18 16 -2 22 13 5 16 13 12 30 -5 18 -2 24 9 24 10 0 13 5 9 13 -6
10 -4 10 7 0 19 -19 34 -16 18 3 -12 15 -9 16 31 9 25 -4 53 -12 64 -17 12 -6
16 -7 12 0 -3 6 12 8 42 5 l47 -5 -32 29 c-32 29 -35 56 -5 30 13 -10 15 -9 9
5 -5 13 -1 18 13 18 19 0 20 8 20 220 0 219 0 221 -20 210 -12 -6 -30 -8 -42
-4 -20 6 -20 8 -5 19 9 7 28 10 42 7 22 -4 25 -1 25 26 0 26 -5 31 -37 40
l-38 10 38 1 c32 1 37 4 37 25 0 13 -6 27 -12 30 -10 5 -10 7 0 12 8 4 12 39
12 122 0 90 -3 113 -12 104 -7 -7 -25 -12 -40 -12 -33 0 -88 -25 -88 -40 0
-11 -33 -14 -43 -4 -3 4 3 18 13 32 11 14 18 27 15 30 -3 3 -12 -3 -20 -14
-14 -18 -16 -18 -28 -2 -13 16 -15 16 -34 -3 -17 -18 -21 -18 -32 -5 -11 13
-9 19 12 38 26 25 25 48 -2 48 -14 0 -17 8 -15 40 1 23 4 44 8 47 3 3 1 12 -6
20 -15 18 -2 29 16 14 23 -19 30 5 9 34 -10 13 -27 24 -38 24 -18 0 -17 -1 5
-14 21 -11 23 -15 8 -20 -22 -9 -40 -59 -41 -120 -2 -41 -6 -51 -26 -61 -13
-7 -27 -18 -31 -24 -4 -7 -13 -9 -19 -6 -16 10 -14 26 4 26 20 0 19 17 -1 28
-13 7 -14 13 -5 31 14 26 5 47 -13 32 -7 -6 -16 -8 -19 -4 -12 11 -8 -7 9 -38
19 -38 13 -45 -26 -29 -19 8 -30 20 -31 34 0 18 -3 16 -14 -9 -13 -30 -16 -28
-27 15 -3 11 -20 15 -64 15 l-59 1 0 40 c0 41 -19 59 -51 47 -8 -3 -25 -1 -37
5 -24 12 -102 34 -213 60 -40 9 -80 24 -90 33 -11 9 -29 20 -41 23 -19 6 -23
4 -23 -14 0 -33 -44 -23 -48 10 -7 62 -11 68 -61 85 -28 9 -51 21 -53 26 -6
19 -84 47 -101 37z m213 -227 c0 -14 -18 -23 -30 -16 -6 4 -8 11 -5 16 8 12
35 12 35 0z m590 -211 c0 -5 -2 -10 -4 -10 -3 0 -8 5 -11 10 -3 6 -1 10 4 10
6 0 11 -4 11 -10z m30 -29 c0 -22 -15 -35 -30 -26 -7 4 -7 13 0 26 14 25 30
25 30 0z m120 -56 c10 -12 10 -15 -3 -15 -8 0 -17 7 -21 15 -3 8 -2 15 3 15 5
0 14 -7 21 -15z m-2850 -45 c0 -5 -7 -7 -15 -4 -8 4 -15 8 -15 10 0 2 7 4 15
4 8 0 15 -4 15 -10z m-855 -30 c15 0 49 -30 42 -37 -7 -7 -74 24 -82 38 -6 9
-3 11 9 6 10 -4 24 -7 31 -7z m1484 -27 c-12 -13 -14 -13 -20 4 -12 30 -10 34
12 23 17 -10 18 -14 8 -27z m-583 15 c4 -6 3 -8 -4 -4 -5 3 -13 0 -15 -6 -3
-8 -6 -6 -6 5 -1 19 14 23 25 5z m-356 -19 c-7 -11 -14 -18 -17 -15 -3 3 0 12
7 21 18 21 23 19 10 -6z m900 11 c0 -5 -2 -10 -4 -10 -3 0 -8 5 -11 10 -3 6
-1 10 4 10 6 0 11 -4 11 -10z m2595 -10 c-3 -5 -10 -10 -16 -10 -5 0 -9 5 -9
10 0 6 7 10 16 10 8 0 12 -4 9 -10z m-2665 -10 c0 -5 -4 -10 -10 -10 -5 0 -10
5 -10 10 0 6 5 10 10 10 6 0 10 -4 10 -10z m770 -22 c0 -6 -7 -5 -15 2 -8 7
-15 17 -15 22 0 6 7 5 15 -2 8 -7 15 -17 15 -22z m1680 22 c0 -5 -4 -10 -10
-10 -5 0 -10 5 -10 10 0 6 5 10 10 10 6 0 10 -4 10 -10z m-2360 -21 c0 -5 -7
-9 -15 -9 -8 0 -15 7 -15 15 0 9 6 12 15 9 8 -4 15 -10 15 -15z m133 8 c4 3 7
1 7 -6 0 -7 -7 -19 -16 -28 -12 -13 -18 -13 -27 -3 -9 10 -9 11 2 5 11 -6 13
-2 9 19 -4 20 -2 24 7 16 6 -5 15 -7 18 -3z m-83 -39 c0 -10 -4 -18 -10 -18
-5 0 -10 15 -10 33 0 24 3 28 10 17 5 -8 10 -23 10 -32z m1305 32 c3 -6 -1 -7
-9 -4 -18 7 -21 14 -7 14 6 0 13 -4 16 -10z m-2675 -10 c0 -5 -6 -10 -14 -10
-8 0 -18 5 -21 10 -3 6 3 10 14 10 12 0 21 -4 21 -10z m770 -10 c0 -5 -4 -10
-10 -10 -5 0 -10 5 -10 10 0 6 5 10 10 10 6 0 10 -4 10 -10z m31 -23 c-8 -8
-11 -7 -11 4 0 20 13 34 18 19 3 -7 -1 -17 -7 -23z m3109 13 c-6 -11 -16 -17
-25 -14 -27 11 -13 31 23 33 10 1 10 -4 2 -19z m-2599 -17 c-8 -15 -10 -15
-11 -2 0 17 10 32 18 25 2 -3 -1 -13 -7 -23z m249 17 c0 -5 -2 -10 -4 -10 -3
0 -8 5 -11 10 -3 6 -1 10 4 10 6 0 11 -4 11 -10z m39 -6 c6 4 11 1 11 -8 0 -8
-4 -18 -10 -21 -5 -3 -10 -1 -10 5 0 6 -4 9 -10 5 -5 -3 -7 -12 -3 -20 3 -8 0
-15 -6 -15 -6 0 -11 2 -11 4 0 2 -3 12 -6 21 -4 10 -2 15 7 13 9 -2 13 4 11
17 -2 15 -1 17 6 6 6 -7 15 -10 21 -7z m403 -6 c-7 -7 -12 -8 -12 -2 0 14 12
26 19 19 2 -3 -1 -11 -7 -17z m-534 0 c-2 -7 -7 -16 -13 -20 -7 -5 -7 -10 0
-15 15 -12 37 -54 31 -61 -3 -3 -15 5 -26 18 -20 23 -20 23 -20 2 0 -12 -5
-22 -10 -22 -6 0 -8 10 -4 24 5 21 3 23 -23 20 -15 -2 -22 -1 -15 2 6 3 12 10
12 15 0 6 -4 8 -8 5 -4 -2 -14 -1 -22 5 -13 7 -12 9 2 9 9 0 23 3 32 6 11 4
16 1 16 -10 0 -9 5 -16 11 -16 6 0 8 7 5 16 -3 8 -2 13 3 10 5 -3 11 1 15 9 7
18 17 20 14 3z m352 -2 c0 -8 7 -22 16 -31 16 -15 16 -18 -1 -33 -17 -16 -17
-16 -11 2 4 12 2 17 -6 13 -7 -2 -19 2 -26 9 -11 12 -9 14 8 14 20 0 20 1 6
16 -20 19 -20 24 -1 24 8 0 15 -6 15 -14z m40 -6 c0 -5 -2 -10 -4 -10 -3 0 -8
5 -11 10 -3 6 -1 10 4 10 6 0 11 -4 11 -10z m113 3 c-7 -2 -19 -2 -25 0 -7 3
-2 5 12 5 14 0 19 -2 13 -5z m554 -19 c-2 -2 -12 -1 -22 3 -18 6 -18 7 1 13
17 7 33 -5 21 -16z m-1527 -21 c0 9 4 17 8 17 5 0 8 -10 7 -22 -2 -17 -8 -22
-24 -21 -13 2 -20 -1 -16 -7 3 -6 13 -10 20 -10 9 0 12 -6 9 -15 -4 -8 -10
-13 -14 -10 -4 3 -10 -1 -13 -8 -3 -9 4 -13 24 -13 21 0 26 3 18 12 -8 9 -5
11 11 7 13 -4 26 0 31 8 8 12 11 11 19 -3 6 -10 17 -15 26 -11 11 4 12 9 3 19
-6 7 -7 19 -3 26 5 7 7 21 6 31 -2 9 0 17 5 16 20 -3 34 2 28 11 -3 6 -4 10 0
10 3 0 10 -11 15 -25 7 -19 17 -25 39 -25 16 0 31 5 33 12 3 8 7 6 11 -5 3 -9
3 -16 -1 -15 -4 1 -18 -4 -31 -11 -14 -8 -21 -9 -17 -2 6 9 -6 13 -30 10 -4 0
-10 5 -15 13 -6 10 -11 9 -23 -7 -10 -14 -11 -24 -4 -32 7 -9 7 -17 -2 -27 -9
-12 -8 -15 7 -13 22 1 29 37 10 49 -7 5 -2 7 12 5 25 -4 43 -27 21 -27 -9 0
-11 -10 -6 -30 3 -16 2 -30 -3 -30 -5 0 -12 -8 -15 -17 -7 -17 12 -36 26 -27
4 3 8 -5 8 -18 0 -18 -2 -20 -10 -8 -7 11 -10 11 -10 2 0 -18 -32 -11 -49 12
-12 16 -12 20 3 28 24 13 20 24 -17 45 l-33 20 2 -29 c1 -17 -3 -28 -11 -28
-8 0 -11 8 -8 23 2 12 -4 6 -14 -15 -17 -33 -20 -35 -41 -24 -17 9 -20 14 -10
24 7 7 8 12 3 12 -6 0 -4 4 3 9 9 5 3 8 -17 9 -17 0 -30 -2 -30 -6 5 -35 -16
-43 -37 -14 -8 10 -13 12 -14 5 0 -7 -5 -13 -10 -13 -6 0 -10 8 -8 17 2 12 -5
17 -30 17 -34 1 -46 21 -12 21 10 0 22 4 26 8 12 12 22 8 27 -10 3 -13 5 -10
6 7 1 21 3 23 14 10 10 -13 33 -17 64 -11 3 0 -2 10 -13 22 -18 20 -18 21 0
34 10 8 15 18 11 24 -3 6 -3 16 1 23 5 8 12 2 20 -17 8 -19 13 -23 14 -12z
m890 17 c0 -11 -4 -20 -9 -20 -7 0 -8 17 -2 38 4 10 11 -2 11 -18z m40 9 c0
-6 7 -9 15 -5 8 3 15 1 15 -4 0 -6 -5 -10 -11 -10 -5 0 -8 -4 -5 -8 2 -4 -4
-13 -15 -20 -11 -7 -19 -8 -19 -2 0 5 5 10 10 10 6 0 10 7 10 16 0 10 -6 14
-15 10 -9 -3 -15 0 -15 9 0 8 7 15 15 15 8 0 15 -5 15 -11z m517 -3 c0 -8 -8
-11 -20 -8 -14 4 -16 7 -5 13 19 12 25 11 25 -5z m27 -1 c3 -8 1 -15 -4 -15
-6 0 -10 7 -10 15 0 8 2 15 4 15 2 0 6 -7 10 -15z m1476 5 c0 -5 -4 -10 -10
-10 -5 0 -10 5 -10 10 0 6 5 10 10 10 6 0 10 -4 10 -10z m-3150 -10 c0 -5 -2
-10 -4 -10 -3 0 -8 5 -11 10 -3 6 -1 10 4 10 6 0 11 -4 11 -10z m30 0 c0 -5
-4 -10 -10 -10 -5 0 -10 5 -10 10 0 6 5 10 10 10 6 0 10 -4 10 -10z m1250 -12
c0 -13 -23 -5 -28 10 -2 7 2 10 12 6 9 -3 16 -11 16 -16z m-810 -10 c0 -6 7
-20 17 -30 15 -17 14 -18 -16 -18 -19 0 -30 -4 -26 -10 3 -5 -1 -10 -9 -10
-15 0 -19 10 -13 28 1 4 10 6 20 6 15 -1 17 4 11 29 -4 20 -3 27 5 23 6 -4 11
-12 11 -18z m282 -9 c15 -4 15 -6 1 -24 -13 -16 -15 -17 -10 -2 4 11 1 17 -7
17 -8 0 -17 6 -20 13 -3 6 -3 2 0 -10 6 -25 -5 -30 -23 -12 -8 8 -7 16 5 30
14 16 19 17 27 5 6 -7 18 -15 27 -17z m158 21 c8 -5 11 -10 5 -10 -5 0 -17 5
-25 10 -8 5 -10 10 -5 10 6 0 17 -5 25 -10z m-1925 -10 c4 -6 11 -8 16 -5 5 4
9 1 9 -4 0 -15 -13 -14 -36 4 -10 8 -14 15 -7 15 6 0 15 -5 18 -10z m2255 0
c0 -5 -4 -10 -10 -10 -5 0 -10 5 -10 10 0 6 5 10 10 10 6 0 10 -4 10 -10z
m390 0 c0 -5 -7 -7 -15 -4 -8 4 -15 8 -15 10 0 2 7 4 15 4 8 0 15 -4 15 -10z
m273 -18 c-3 -12 -13 -22 -22 -22 -10 0 -12 3 -5 8 6 4 14 16 17 26 10 25 18
16 10 -12z m-2832 -2 c31 -25 18 -25 -23 0 -20 12 -26 20 -17 20 9 0 27 -9 40
-20z m1175 -4 c0 -14 -6 -22 -13 -19 -9 4 -10 10 -2 24 13 25 17 24 15 -5z
m2788 18 c9 -3 16 -10 16 -15 0 -15 -37 -10 -50 6 -10 12 -10 15 3 15 8 0 22
-3 31 -6z m-2117 -16 c2 6 10 12 16 12 6 0 4 -7 -5 -16 -17 -17 -38 -12 -38 9
0 7 4 6 11 -3 8 -11 12 -12 16 -2z m-360 -25 c-12 -14 -13 -22 -5 -38 11 -19
10 -19 -8 -5 -24 19 -34 32 -34 45 0 6 5 3 10 -5 8 -13 10 -13 10 2 0 11 5 15
15 12 8 -4 15 -1 15 7 0 7 3 9 7 6 3 -4 -1 -15 -10 -24z m540 21 c-3 -3 -12
-4 -19 -1 -8 3 -5 6 6 6 11 1 17 -2 13 -5z m-970 -10 c-3 -3 -12 -4 -19 -1 -8
3 -5 6 6 6 11 1 17 -2 13 -5z m-832 -14 c3 -5 13 -6 23 -3 13 5 14 3 6 -6 -9
-10 -18 -10 -40 3 -19 10 -23 15 -12 16 9 0 19 -4 23 -10z m745 0 c0 -5 -4
-10 -10 -10 -5 0 -10 5 -10 10 0 6 5 10 10 10 6 0 10 -4 10 -10z m910 -5 c-14
-16 -50 -21 -50 -6 0 5 9 7 20 4 11 -3 20 0 20 6 0 6 5 11 11 11 8 0 8 -5 -1
-15z m2139 -11 c9 -9 -53 7 -63 17 -5 5 5 4 24 -1 18 -5 35 -12 39 -16z
m-3114 6 c3 -5 1 -10 -4 -10 -6 0 -11 5 -11 10 0 6 2 10 4 10 3 0 8 -4 11 -10z
m1101 -6 c-4 -11 6 -21 37 -35 31 -15 35 -19 14 -14 -28 6 -29 5 -24 -30 6
-44 -9 -46 -52 -5 -34 33 -39 50 -16 50 8 0 15 5 15 11 0 5 -5 7 -11 3 -7 -4
-10 -1 -7 7 3 8 11 13 17 12 6 -2 11 2 11 7 0 6 5 10 11 10 6 0 8 -7 5 -16z
m575 9 c0 -5 2 -18 5 -30 2 -13 -1 -23 -6 -23 -6 0 -10 3 -10 8 0 4 -3 17 -6
30 -4 13 -2 22 5 22 6 0 11 -3 12 -7z m1234 -26 c54 -9 85 -19 80 -27 -2 -4
-28 -1 -57 7 -29 7 -63 11 -75 8 -12 -3 -23 -1 -25 5 -2 6 -9 6 -17 0 -11 -6
-5 -10 22 -15 20 -4 37 -12 37 -17 0 -6 -13 -7 -32 -2 -18 4 -42 8 -53 10 -11
1 -36 5 -55 9 -29 4 -31 4 -12 -4 12 -6 22 -13 22 -17 0 -3 -8 -3 -17 1 -10 4
-29 7 -42 6 -39 -2 -15 12 67 40 65 22 80 24 102 13 14 -7 39 -15 55 -17z
m-3477 6 c35 -6 45 -29 12 -29 -11 0 -20 4 -20 9 0 4 -4 6 -9 3 -15 -9 -63 13
-56 25 4 6 14 7 24 4 9 -4 31 -9 49 -12z m1712 13 c0 -3 -4 -8 -10 -11 -5 -3
-10 -1 -10 4 0 6 5 11 10 11 6 0 10 -2 10 -4z m-724 -23 c-8 -25 8 -48 25 -37
11 6 11 4 0 -10 -10 -12 -16 -14 -21 -5 -4 6 -13 8 -19 4 -8 -5 -10 2 -5 22 8
32 13 43 20 43 3 0 3 -8 0 -17z m339 7 c3 -6 -1 -7 -9 -4 -18 7 -21 14 -7 14
6 0 13 -4 16 -10z m420 0 c3 -5 1 -10 -4 -10 -6 0 -11 5 -11 10 0 6 2 10 4 10
3 0 8 -4 11 -10z m-654 -25 c5 4 6 -2 2 -11 -5 -14 -3 -16 13 -10 16 6 17 5 6
-6 -11 -11 -16 -10 -26 5 -17 22 -36 22 -36 0 0 -9 -2 -14 -5 -11 -4 3 -3 17
1 32 5 22 8 24 21 11 8 -9 19 -13 24 -10z m93 13 c-5 -8 -2 -9 9 -5 10 3 17 2
17 -3 0 -6 -9 -10 -20 -10 -20 0 -26 11 -13 23 10 11 15 8 7 -5z m2461 2 c-3
-5 -11 -10 -16 -10 -6 0 -7 5 -4 10 3 6 11 10 16 10 6 0 7 -4 4 -10z m-3765
-10 c8 -5 11 -10 5 -10 -5 0 -17 5 -25 10 -8 5 -10 10 -5 10 6 0 17 -5 25 -10z
m2095 0 c18 -8 19 -9 1 -9 -11 -1 -16 -6 -13 -14 7 -19 -8 -41 -22 -32 -9 5
-9 10 -1 20 8 9 8 15 0 20 -14 9 -13 25 3 24 6 0 21 -4 32 -9z m-500 -10 c19
-8 19 -9 -2 -9 -12 -1 -25 4 -28 9 -7 12 2 12 30 0z m305 -10 c5 8 10 9 14 2
3 -6 -4 -14 -16 -18 -13 -4 -26 -12 -30 -18 -6 -8 -8 -8 -8 1 0 6 4 14 10 18
5 3 7 13 4 23 -5 14 -3 14 6 -2 9 -13 14 -15 20 -6z m-890 1 c0 -16 -12 -41
-19 -41 -6 0 -7 32 -2 48 3 7 21 1 21 -7z m624 -6 c3 -8 1 -15 -4 -15 -6 0
-10 7 -10 15 0 8 2 15 4 15 2 0 6 -7 10 -15z m86 -7 c0 -10 6 -18 13 -19 9 0
9 -2 -1 -6 -7 -3 -22 3 -33 13 -19 17 -20 17 -26 -4 -5 -20 -15 -26 -35 -23
-5 0 -8 -3 -8 -9 0 -5 7 -10 16 -10 8 0 13 -4 9 -10 -3 -6 -15 -5 -30 2 l-25
11 23 16 c34 24 49 40 43 49 -3 5 8 9 24 9 22 0 30 -5 30 -19z m425 1 c0 -8
-10 -15 -23 -17 -21 -3 -22 -1 -12 18 12 23 35 22 35 -1z m1195 11 c0 -5 -10
-10 -22 -10 -19 0 -20 2 -8 10 19 13 30 13 30 0z m-672 -22 c-2 -18 -10 -23
-33 -25 -20 -1 -23 0 -7 4 13 3 22 12 22 24 0 10 5 19 11 19 6 0 9 -10 7 -22z
m1079 16 c-3 -3 -12 -4 -19 -1 -8 3 -5 6 6 6 11 1 17 -2 13 -5z m-2447 -14 c0
-5 -2 -10 -4 -10 -3 0 -8 5 -11 10 -3 6 -1 10 4 10 6 0 11 -4 11 -10z m2386
-12 c-22 -12 -57 -1 -37 11 7 5 22 6 33 3 18 -4 19 -6 4 -14z m-1472 -43 c5
-18 3 -18 -14 3 -24 29 -30 28 -26 -8 2 -16 -1 -27 -5 -24 -5 3 -9 0 -9 -6 0
-6 -5 -8 -10 -5 -6 4 -5 11 4 20 7 8 12 27 10 45 l-4 31 24 -18 c14 -10 27
-27 30 -38z m-2072 38 c-6 -2 -10 -9 -6 -14 3 -5 13 -5 25 2 11 6 28 7 37 3 9
-4 20 -6 25 -6 4 1 7 -2 7 -8 0 -5 -8 -10 -17 -10 -15 0 -14 -2 3 -15 18 -14
17 -15 -11 -9 -16 4 -47 16 -68 27 -32 18 -35 22 -20 28 10 4 23 8 28 8 6 -1
4 -3 -3 -6z m825 -7 c0 -8 -6 -12 -14 -9 -7 3 -10 9 -7 14 8 14 21 11 21 -5z
m238 4 c3 -5 1 -10 -4 -10 -6 0 -11 5 -11 10 0 6 2 10 4 10 3 0 8 -4 11 -10z
m800 0 c3 -5 1 -10 -4 -10 -6 0 -11 5 -11 10 0 6 2 10 4 10 3 0 8 -4 11 -10z
m355 0 c0 -5 -2 -10 -4 -10 -3 0 -8 5 -11 10 -3 6 -1 10 4 10 6 0 11 -4 11
-10z m1268 -1 c12 0 10 -3 -6 -10 -25 -10 -42 -5 -42 13 0 5 7 7 16 4 9 -3 23
-6 32 -7z m-3631 -5 c-3 -3 -12 -4 -19 -1 -8 3 -5 6 6 6 11 1 17 -2 13 -5z
m1724 -19 c5 4 6 -1 3 -10 -5 -12 -9 -13 -20 -4 -11 9 -14 8 -14 -2 0 -9 -3
-10 -10 -3 -6 6 -8 18 -4 27 5 15 8 15 21 2 8 -9 19 -13 24 -10z m334 14 c4
-5 0 -18 -9 -28 -9 -10 -13 -21 -9 -25 4 -4 -4 -3 -17 2 -14 5 -31 7 -37 5 -7
-3 -13 0 -13 7 0 7 12 9 31 6 24 -4 29 -1 25 11 -11 27 15 46 29 22z m185 7
c0 -3 -4 -8 -10 -11 -5 -3 -10 -1 -10 4 0 6 5 11 10 11 6 0 10 -2 10 -4z
m1177 -2 c-3 -3 -12 -4 -19 -1 -8 3 -5 6 6 6 11 1 17 -2 13 -5z m-1657 -20 c0
-8 -5 -12 -10 -9 -6 4 -8 11 -5 16 9 14 15 11 15 -7z m120 7 c0 -5 -7 -12 -16
-15 -14 -5 -15 -4 -4 9 14 17 20 19 20 6z m543 -11 c-5 -19 -23 -29 -23 -12 0
7 20 32 26 32 1 0 0 -9 -3 -20z m67 5 c0 -8 -4 -15 -10 -15 -5 0 -10 7 -10 15
0 8 5 15 10 15 6 0 10 -7 10 -15z m880 -9 c0 -9 -7 -12 -21 -9 -16 4 -17 8 -7
14 19 13 28 11 28 -5z m-1580 0 c0 -3 -4 -8 -10 -11 -5 -3 -10 -1 -10 4 0 6 5
11 10 11 6 0 10 -2 10 -4z m-246 -32 c3 -8 2 -12 -4 -9 -6 3 -10 10 -10 16 0
14 7 11 14 -7z m306 -4 c0 -10 -38 -1 -45 10 -2 4 7 5 20 2 14 -2 25 -8 25
-12z m1560 16 c0 -2 -7 -7 -16 -10 -8 -3 -12 -2 -9 4 6 10 25 14 25 6z m-1716
-21 c-4 -8 -7 -15 -9 -15 -2 0 -5 7 -9 15 -3 9 0 15 9 15 9 0 12 -6 9 -15z
m1656 5 c-8 -5 -22 -9 -30 -9 -10 0 -8 3 5 9 27 12 43 12 25 0z m470 -296 c0
-2 -7 -4 -15 -4 -8 0 -15 4 -15 10 0 5 7 7 15 4 8 -4 15 -8 15 -10z m-3140
-234 c0 -5 -4 -10 -9 -10 -6 0 -13 5 -16 10 -3 6 1 10 9 10 9 0 16 -4 16 -10z"/>
<path d="M1405 620 c3 -5 14 -10 23 -10 15 0 15 2 2 10 -20 13 -33 13 -25 0z"/>
<path d="M2148 673 c7 -3 16 -2 19 1 4 3 -2 6 -13 5 -11 0 -14 -3 -6 -6z"/>
<path d="M2171 644 c0 -11 3 -14 6 -6 3 7 2 16 -1 19 -3 4 -6 -2 -5 -13z"/>
<path d="M1573 1525 c3 -7 1 -17 -5 -23 -7 -7 -4 -14 11 -21 17 -9 21 -9 21 3
0 8 3 21 6 29 3 9 -3 16 -16 20 -15 4 -20 2 -17 -8z"/>
<path d="M2330 1530 c8 -5 31 -9 50 -9 l35 1 -30 8 c-16 4 -39 8 -50 9 -16 1
-17 -1 -5 -9z"/>
<path d="M2534 1525 c-10 -26 1 -35 13 -10 6 14 7 25 2 25 -5 0 -12 -7 -15
-15z"/>
<path d="M347 1515 c-71 -15 -79 -23 -86 -76 -5 -35 -12 -45 -38 -58 -36 -18
-37 -19 -23 -41 8 -12 12 -11 30 8 15 16 28 21 42 16 17 -5 20 -3 15 11 -9 23
10 55 32 55 20 0 39 -32 23 -38 -5 -1 -18 -9 -28 -17 -19 -14 -19 -14 1 -16
137 -10 224 19 225 74 0 13 -5 16 -23 12 -22 -6 -46 13 -73 61 -14 24 -25 25
-97 9z m23 -55 c0 -5 -4 -10 -10 -10 -5 0 -10 5 -10 10 0 6 5 10 10 10 6 0 10
-4 10 -10z"/>
<path d="M250 1510 c0 -5 5 -10 11 -10 5 0 7 5 4 10 -3 6 -8 10 -11 10 -2 0
-4 -4 -4 -10z"/>
<path d="M1397 1504 c-9 -10 2 -24 19 -24 8 0 14 7 14 15 0 15 -21 21 -33 9z"/>
<path d="M1520 1500 c0 -5 7 -10 16 -10 8 0 12 5 9 10 -3 6 -10 10 -16 10 -5
0 -9 -4 -9 -10z"/>
<path d="M2463 1473 c9 -11 15 -22 12 -25 -3 -3 7 -3 22 0 27 5 27 6 5 11 -13
3 -23 11 -22 16 1 6 -7 12 -17 14 -17 3 -17 2 0 -16z"/>
<path d="M2600 1481 c0 -5 -13 -11 -29 -14 -69 -14 -31 -91 60 -119 30 -9 58
-14 62 -11 5 3 5 18 2 34 -5 22 -3 29 9 29 10 0 13 6 10 15 -5 12 -15 14 -40
9 -45 -8 -60 3 -38 28 16 16 16 21 4 28 -19 12 -40 13 -40 1z"/>
<path d="M971 1460 c-17 -10 -7 -60 12 -60 17 0 99 58 90 63 -14 8 -88 6 -102
-3z"/>
<path d="M1380 1455 c0 -8 8 -15 18 -14 10 0 12 3 4 6 -6 2 -10 9 -6 14 3 5 0
9 -5 9 -6 0 -11 -7 -11 -15z"/>
<path d="M1528 1463 c7 -3 16 -2 19 1 4 3 -2 6 -13 5 -11 0 -14 -3 -6 -6z"/>
<path d="M0 1390 c0 -38 3 -70 6 -70 16 0 44 23 44 35 0 9 9 23 20 32 26 23
25 35 -2 31 -16 -2 -26 4 -33 20 -20 45 -35 25 -35 -48z"/>
<path d="M2060 1394 c0 -8 5 -12 10 -9 6 4 8 11 5 16 -9 14 -15 11 -15 -7z"/>
<path d="M892 1382 c-13 -4 -22 -11 -21 -17 11 -50 11 -50 40 -35 11 6 19 21
19 35 0 26 -1 27 -38 17z"/>
<path d="M998 1340 c-19 -33 -15 -39 8 -15 9 8 14 22 12 30 -2 10 -9 5 -20
-15z"/>
<path d="M2750 1347 c0 -5 9 -11 20 -14 11 -3 18 -9 15 -13 -8 -13 68 -110 87
-110 34 0 48 12 48 41 0 16 -6 29 -12 30 -7 0 -4 4 7 9 16 7 16 9 3 9 -9 1
-21 14 -26 31 -11 29 -12 30 -76 28 -36 -1 -66 -6 -66 -11z"/>
<path d="M4055 1320 c-18 -7 -17 -9 10 -19 17 -6 38 -16 48 -21 14 -9 17 -6
17 14 0 33 -31 44 -75 26z"/>
<path d="M2945 1280 c3 -5 8 -10 11 -10 2 0 4 5 4 10 0 6 -5 10 -11 10 -5 0
-7 -4 -4 -10z"/>
<path d="M3738 1274 c-13 -13 -19 -14 -37 -3 -18 12 -23 11 -38 -4 -16 -16
-16 -18 5 -37 25 -24 52 -26 52 -5 0 8 5 15 10 15 6 0 9 -5 8 -11 -2 -7 9 -15
25 -20 15 -4 27 -3 27 2 0 5 -7 9 -16 9 -9 0 -14 7 -12 17 2 11 13 18 28 18
15 0 26 7 28 18 3 13 -3 17 -30 17 -19 0 -41 -7 -50 -16z"/>
<path d="M3847 1273 c-15 -14 -7 -34 12 -28 10 3 24 -1 31 -10 7 -8 16 -12 21
-9 17 10 9 22 -23 38 -36 19 -33 18 -41 9z"/>
<path d="M2670 1259 c0 -5 5 -7 10 -4 6 3 10 8 10 11 0 2 -4 4 -10 4 -5 0 -10
-5 -10 -11z"/>
<path d="M2325 1240 c-3 -5 -1 -10 4 -10 6 0 11 5 11 10 0 6 -2 10 -4 10 -3 0
-8 -4 -11 -10z"/>
<path d="M1270 1229 c0 -5 5 -7 10 -4 6 3 10 8 10 11 0 2 -4 4 -10 4 -5 0 -10
-5 -10 -11z"/>
<path d="M2160 1230 c0 -5 4 -10 9 -10 6 0 13 5 16 10 3 6 -1 10 -9 10 -9 0
-16 -4 -16 -10z"/>
<path d="M1396 1195 c-3 -8 -1 -15 3 -15 5 0 11 7 15 15 3 8 1 15 -3 15 -5 0
-11 -7 -15 -15z"/>
<path d="M3088 1203 c6 -2 18 -2 25 0 6 3 1 5 -13 5 -14 0 -19 -2 -12 -5z"/>
<path d="M2291 1184 c13 -16 29 -19 29 -5 0 5 -9 11 -21 14 -16 4 -18 3 -8 -9z"/>
<path d="M4070 1190 c0 -5 4 -10 9 -10 6 0 13 5 16 10 3 6 -1 10 -9 10 -9 0
-16 -4 -16 -10z"/>
<path d="M3893 1170 c-10 -14 -9 -21 3 -31 13 -10 17 -10 25 2 12 19 11 25 -4
37 -9 8 -16 6 -24 -8z"/>
<path d="M4020 1166 c0 -9 5 -16 10 -16 6 0 10 4 10 9 0 6 -4 13 -10 16 -5 3
-10 -1 -10 -9z"/>
<path d="M1145 1150 c-5 -9 6 -15 63 -35 16 -6 15 5 -2 28 -14 19 -51 23 -61
7z"/>
<path d="M1570 1151 c0 -6 5 -13 10 -16 6 -3 10 1 10 9 0 9 -4 16 -10 16 -5 0
-10 -4 -10 -9z"/>
<path d="M2065 1151 c-10 -17 12 -21 25 -6 10 12 10 15 -3 15 -9 0 -18 -4 -22
-9z"/>
<path d="M4130 1145 c0 -8 4 -15 10 -15 5 0 7 7 4 15 -4 8 -8 15 -10 15 -2 0
-4 -7 -4 -15z"/>
<path d="M1835 1134 c-33 -7 -73 -11 -88 -8 -19 4 -35 0 -48 -12 -10 -9 -19
-14 -19 -9 0 4 -7 2 -15 -5 -12 -10 -13 -16 -4 -26 9 -11 8 -14 -2 -15 -8 0
-3 -5 11 -11 56 -23 271 -4 254 23 -3 5 3 9 13 9 10 0 26 7 36 14 17 13 15 15
-20 26 -21 7 -42 16 -48 20 -5 4 -37 1 -70 -6z"/>
<path d="M870 1130 c0 -5 5 -10 11 -10 5 0 7 5 4 10 -3 6 -8 10 -11 10 -2 0
-4 -4 -4 -10z"/>
<path d="M1276 1127 c3 -10 9 -15 12 -12 3 3 0 11 -7 18 -10 9 -11 8 -5 -6z"/>
<path d="M2490 1070 c0 -5 5 -10 10 -10 6 0 10 5 10 10 0 6 -4 10 -10 10 -5 0
-10 -4 -10 -10z"/>
<path d="M1148 1044 c-5 -5 -28 -11 -50 -13 -8 -1 28 -41 37 -41 2 0 1 7 -2
17 -4 10 -2 14 4 10 6 -4 13 2 16 13 5 21 4 24 -5 14z"/>
<path d="M1270 1031 c0 -25 6 -27 13 -6 4 8 2 17 -3 20 -6 4 -10 -3 -10 -14z"/>
<path d="M1860 1030 c0 -5 9 -10 21 -10 11 0 17 5 14 10 -3 6 -13 10 -21 10
-8 0 -14 -4 -14 -10z"/>
<path d="M1198 995 c-3 -14 -2 -25 2 -25 11 0 20 39 10 45 -4 3 -10 -6 -12
-20z"/>
<path d="M1320 992 c0 -21 2 -22 15 -12 8 7 15 18 15 25 0 6 -7 12 -15 12 -9
0 -15 -10 -15 -25z"/>
<path d="M1125 969 c-4 -6 -5 -12 -2 -15 2 -3 7 2 10 11 7 17 1 20 -8 4z"/>
<path d="M3161 972 c0 -7 -5 -10 -11 -7 -6 3 -10 -4 -10 -17 l-1 -23 -14 25
c-8 14 -14 19 -15 11 0 -8 -6 -11 -16 -7 -9 3 -12 2 -9 -5 4 -6 13 -8 21 -5
15 6 15 -27 -1 -41 -4 -5 -5 -2 -1 5 4 6 3 12 -2 12 -16 0 -23 -46 -12 -75 6
-17 6 -24 0 -20 -6 4 -8 -6 -6 -25 4 -38 20 -57 31 -39 5 7 4 10 -2 6 -6 -4
-14 0 -17 9 -8 22 -8 22 12 20 18 -1 19 10 7 69 -6 27 -5 28 8 13 19 -24 30
-23 22 2 -4 13 0 31 10 46 9 14 14 33 12 42 -3 9 -5 11 -6 4z"/>
<path d="M1155 950 c3 -5 11 -10 16 -10 6 0 7 5 4 10 -3 6 -11 10 -16 10 -6 0
-7 -4 -4 -10z"/>
<path d="M2910 949 c0 -7 9 -9 21 -6 13 3 28 -2 39 -13 12 -12 22 -15 26 -9 3
6 20 17 38 25 l31 13 -32 1 c-17 0 -34 -4 -38 -10 -4 -6 -15 -6 -31 0 -34 13
-54 13 -54 -1z"/>
<path d="M2523 914 c-7 -7 -13 -16 -13 -19 0 -4 -6 -13 -14 -20 -16 -17 -30
-7 -16 10 8 9 6 14 -5 19 -10 3 -15 0 -15 -12 0 -26 13 -40 42 -47 24 -6 26
-10 17 -32 -12 -32 -12 -50 0 -37 5 5 13 26 16 47 6 30 5 38 -7 35 -7 -2 -15
2 -16 7 -7 24 29 14 38 -10 7 -18 15 -25 25 -21 8 3 15 2 15 -3 0 -5 -9 -11
-20 -14 -23 -6 -27 -39 -6 -56 24 -20 67 14 50 40 -3 5 2 9 10 9 11 0 16 9 16
29 0 16 7 34 15 41 8 7 12 17 9 22 -3 5 -19 -3 -35 -18 -15 -15 -26 -31 -23
-36 3 -4 -6 -3 -21 4 -16 7 -21 14 -14 19 6 4 9 12 5 18 -5 7 -1 9 8 5 9 -3
16 -2 16 3 0 5 -12 10 -27 11 -15 1 -29 6 -32 11 -3 5 -12 3 -18 -5z m107 -84
c0 -5 -8 -10 -17 -10 -15 0 -16 2 -3 10 19 12 20 12 20 0z"/>
<path d="M2726 895 c9 -14 18 -25 20 -25 2 0 -2 11 -8 25 -6 14 -15 25 -20 25
-5 0 -1 -11 8 -25z"/>
<path d="M3160 910 c0 -5 9 -10 21 -10 11 0 17 5 14 10 -3 6 -13 10 -21 10 -8
0 -14 -4 -14 -10z"/>
<path d="M2846 901 c-4 -7 -5 -15 -2 -18 9 -9 19 4 14 18 -4 11 -6 11 -12 0z"/>
<path d="M2893 895 c-10 -11 -10 -15 0 -18 9 -4 9 -6 0 -6 -7 -1 -13 -6 -13
-13 0 -8 6 -7 16 4 9 8 14 22 12 31 -2 12 -5 13 -15 2z"/>
<path d="M2980 894 c0 -2 9 -8 20 -14 11 -6 20 -7 20 -2 0 6 -9 12 -20 15 -11
3 -20 3 -20 1z"/>
<path d="M2396 882 c-5 -9 -4 -92 2 -92 1 0 15 12 30 27 15 15 19 21 9 13 -9
-7 -21 -10 -24 -6 -4 4 -1 11 6 15 11 7 10 11 -5 19 -10 6 -15 14 -11 18 5 5
11 4 15 -2 4 -6 16 -14 27 -17 17 -6 17 -4 -4 13 -25 22 -37 25 -45 12z"/>
<path d="M3191 879 c-13 -5 -22 -11 -20 -13 7 -7 59 6 59 15 0 11 -8 11 -39
-2z"/>
<path d="M2700 870 c-12 -7 -10 -9 7 -7 12 0 19 5 17 9 -6 10 -6 10 -24 -2z"/>
<path d="M3248 840 c2 -23 8 -37 14 -34 5 3 7 18 3 33 -11 43 -21 43 -17 1z"/>
<path d="M1136 862 c-2 -4 -1 -14 5 -22 7 -12 9 -10 9 8 0 23 -5 28 -14 14z"/>
<path d="M1166 861 c-4 -7 -5 -15 -2 -18 9 -9 19 4 14 18 -4 11 -6 11 -12 0z"/>
<path d="M2860 845 c0 -8 7 -15 16 -15 14 0 14 3 4 15 -7 8 -14 15 -16 15 -2
0 -4 -7 -4 -15z"/>
<path d="M3020 730 c0 -5 5 -10 11 -10 5 0 7 5 4 10 -3 6 -8 10 -11 10 -2 0
-4 -4 -4 -10z"/>
<path d="M2590 700 c0 -5 5 -10 11 -10 5 0 7 5 4 10 -3 6 -8 10 -11 10 -2 0
-4 -4 -4 -10z"/>
<path d="M2863 695 c5 -15 34 -18 39 -3 4 8 -3 13 -18 13 -13 0 -23 -4 -21
-10z"/>
<path d="M410 124 c0 -13 3 -14 14 -5 11 9 15 9 19 -1 4 -8 6 -7 6 5 1 11 -6
17 -19 17 -12 0 -20 -7 -20 -16z"/>
<path d="M4049 61 c13 -12 28 -21 34 -21 12 0 11 0 -28 24 l-30 17 24 -20z"/>
<path d="M3770 20 c0 -11 4 -20 9 -20 5 0 7 9 4 20 -3 11 -7 20 -9 20 -2 0 -4
-9 -4 -20z"/>
</g>
</svg>
